<mxfile host="app.diagrams.net" modified="2023-10-19T22:10:18.124Z" agent="Mozilla/5.0 (Windows NT 10.0; Win64; x64) AppleWebKit/537.36 (KHTML, like Gecko) Chrome/118.0.0.0 Safari/537.36 Edg/118.0.2088.46" etag="ufb_CNb1YG_mzFYvQhdT" version="22.0.5" type="github">
  <diagram id="6a731a19-8d31-9384-78a2-239565b7b9f0" name="Page-1">
    <mxGraphModel dx="1605" dy="644" grid="1" gridSize="10" guides="1" tooltips="1" connect="1" arrows="1" fold="1" page="1" pageScale="1" pageWidth="1169" pageHeight="827" background="none" math="0" shadow="0">
      <root>
        <mxCell id="0" />
        <mxCell id="1" parent="0" />
        <mxCell id="aYyPRx570U37zH_6uIJI-58" value="saldo" style="html=1;strokeWidth=2;shape=manualInput;whiteSpace=wrap;rounded=1;size=26;arcSize=11;" vertex="1" parent="1">
          <mxGeometry x="336" y="118" width="100" height="50" as="geometry" />
        </mxCell>
        <mxCell id="aYyPRx570U37zH_6uIJI-61" style="edgeStyle=orthogonalEdgeStyle;rounded=0;orthogonalLoop=1;jettySize=auto;html=1;exitX=0.5;exitY=1;exitDx=0;exitDy=0;exitPerimeter=0;entryX=0.5;entryY=0;entryDx=0;entryDy=0;" edge="1" parent="1" source="aYyPRx570U37zH_6uIJI-59" target="aYyPRx570U37zH_6uIJI-58">
          <mxGeometry relative="1" as="geometry" />
        </mxCell>
        <mxCell id="aYyPRx570U37zH_6uIJI-59" value="início" style="strokeWidth=2;html=1;shape=mxgraph.flowchart.start_2;whiteSpace=wrap;" vertex="1" parent="1">
          <mxGeometry x="336" y="68" width="100" height="30" as="geometry" />
        </mxCell>
        <mxCell id="aYyPRx570U37zH_6uIJI-65" style="edgeStyle=orthogonalEdgeStyle;rounded=0;orthogonalLoop=1;jettySize=auto;html=1;exitX=0.5;exitY=1;exitDx=0;exitDy=0;exitPerimeter=0;entryX=1;entryY=0.5;entryDx=0;entryDy=0;" edge="1" parent="1" source="aYyPRx570U37zH_6uIJI-62" target="aYyPRx570U37zH_6uIJI-64">
          <mxGeometry relative="1" as="geometry" />
        </mxCell>
        <mxCell id="aYyPRx570U37zH_6uIJI-62" value="&quot;Saldo incial: &quot;+ saldo" style="strokeWidth=2;html=1;shape=mxgraph.flowchart.display;whiteSpace=wrap;" vertex="1" parent="1">
          <mxGeometry x="476" y="113" width="120" height="60" as="geometry" />
        </mxCell>
        <mxCell id="aYyPRx570U37zH_6uIJI-63" style="edgeStyle=orthogonalEdgeStyle;rounded=0;orthogonalLoop=1;jettySize=auto;html=1;exitX=1;exitY=0.5;exitDx=0;exitDy=0;entryX=0;entryY=0.5;entryDx=0;entryDy=0;entryPerimeter=0;" edge="1" parent="1" source="aYyPRx570U37zH_6uIJI-58" target="aYyPRx570U37zH_6uIJI-62">
          <mxGeometry relative="1" as="geometry" />
        </mxCell>
        <mxCell id="aYyPRx570U37zH_6uIJI-64" value="encerrar = &#39;n&#39;" style="rounded=1;whiteSpace=wrap;html=1;absoluteArcSize=1;arcSize=14;strokeWidth=2;" vertex="1" parent="1">
          <mxGeometry x="336" y="188" width="100" height="30" as="geometry" />
        </mxCell>
        <mxCell id="aYyPRx570U37zH_6uIJI-89" value="V" style="edgeStyle=orthogonalEdgeStyle;rounded=0;orthogonalLoop=1;jettySize=auto;html=1;exitX=0.5;exitY=1;exitDx=0;exitDy=0;exitPerimeter=0;entryX=0.5;entryY=0.167;entryDx=0;entryDy=0;entryPerimeter=0;" edge="1" parent="1" source="aYyPRx570U37zH_6uIJI-66" target="aYyPRx570U37zH_6uIJI-69">
          <mxGeometry relative="1" as="geometry">
            <Array as="points" />
          </mxGeometry>
        </mxCell>
        <mxCell id="aYyPRx570U37zH_6uIJI-66" value="encerrar == &#39;n&#39;" style="strokeWidth=2;html=1;shape=mxgraph.flowchart.decision;whiteSpace=wrap;" vertex="1" parent="1">
          <mxGeometry x="336" y="248" width="100" height="100" as="geometry" />
        </mxCell>
        <mxCell id="aYyPRx570U37zH_6uIJI-67" style="edgeStyle=orthogonalEdgeStyle;rounded=0;orthogonalLoop=1;jettySize=auto;html=1;exitX=0.5;exitY=1;exitDx=0;exitDy=0;entryX=0.5;entryY=0;entryDx=0;entryDy=0;entryPerimeter=0;" edge="1" parent="1" source="aYyPRx570U37zH_6uIJI-64" target="aYyPRx570U37zH_6uIJI-66">
          <mxGeometry relative="1" as="geometry" />
        </mxCell>
        <mxCell id="aYyPRx570U37zH_6uIJI-68" value="saldo = saldo + quantidade" style="rounded=1;whiteSpace=wrap;html=1;absoluteArcSize=1;arcSize=14;strokeWidth=2;" vertex="1" parent="1">
          <mxGeometry x="496" y="610.5" width="100" height="45" as="geometry" />
        </mxCell>
        <mxCell id="aYyPRx570U37zH_6uIJI-90" style="edgeStyle=orthogonalEdgeStyle;rounded=0;orthogonalLoop=1;jettySize=auto;html=1;exitX=0.5;exitY=1;exitDx=0;exitDy=0;entryX=0.5;entryY=0;entryDx=0;entryDy=0;" edge="1" parent="1" source="aYyPRx570U37zH_6uIJI-69" target="aYyPRx570U37zH_6uIJI-70">
          <mxGeometry relative="1" as="geometry" />
        </mxCell>
        <mxCell id="aYyPRx570U37zH_6uIJI-69" value="tipo de entrada" style="html=1;strokeWidth=2;shape=manualInput;whiteSpace=wrap;rounded=1;size=26;arcSize=11;" vertex="1" parent="1">
          <mxGeometry x="336" y="388" width="100" height="60" as="geometry" />
        </mxCell>
        <mxCell id="aYyPRx570U37zH_6uIJI-70" value="quantidade" style="html=1;strokeWidth=2;shape=manualInput;whiteSpace=wrap;rounded=1;size=26;arcSize=11;" vertex="1" parent="1">
          <mxGeometry x="336" y="472" width="100" height="60" as="geometry" />
        </mxCell>
        <mxCell id="aYyPRx570U37zH_6uIJI-92" value="V" style="edgeStyle=orthogonalEdgeStyle;rounded=0;orthogonalLoop=1;jettySize=auto;html=1;exitX=1;exitY=0.5;exitDx=0;exitDy=0;exitPerimeter=0;entryX=0;entryY=0.5;entryDx=0;entryDy=0;" edge="1" parent="1" source="aYyPRx570U37zH_6uIJI-71" target="aYyPRx570U37zH_6uIJI-68">
          <mxGeometry relative="1" as="geometry" />
        </mxCell>
        <mxCell id="aYyPRx570U37zH_6uIJI-71" value="&amp;nbsp; &amp;nbsp;tipo de entrada&amp;nbsp; == 1" style="strokeWidth=2;html=1;shape=mxgraph.flowchart.decision;whiteSpace=wrap;" vertex="1" parent="1">
          <mxGeometry x="331" y="588" width="110" height="90" as="geometry" />
        </mxCell>
        <mxCell id="aYyPRx570U37zH_6uIJI-104" style="edgeStyle=orthogonalEdgeStyle;rounded=0;orthogonalLoop=1;jettySize=auto;html=1;exitX=0.5;exitY=1;exitDx=0;exitDy=0;exitPerimeter=0;entryX=1;entryY=0.5;entryDx=0;entryDy=0;entryPerimeter=0;" edge="1" parent="1" source="aYyPRx570U37zH_6uIJI-72">
          <mxGeometry relative="1" as="geometry">
            <mxPoint x="456" y="988" as="targetPoint" />
            <mxPoint x="730.4999999999999" y="938" as="sourcePoint" />
            <Array as="points">
              <mxPoint x="731" y="918" />
              <mxPoint x="731" y="988" />
            </Array>
          </mxGeometry>
        </mxCell>
        <mxCell id="aYyPRx570U37zH_6uIJI-72" value="&quot;Saída: &quot; + quantidade" style="strokeWidth=2;html=1;shape=mxgraph.flowchart.display;whiteSpace=wrap;" vertex="1" parent="1">
          <mxGeometry x="660.5" y="858" width="100" height="60" as="geometry" />
        </mxCell>
        <mxCell id="aYyPRx570U37zH_6uIJI-101" style="edgeStyle=orthogonalEdgeStyle;rounded=0;orthogonalLoop=1;jettySize=auto;html=1;exitX=0.5;exitY=1;exitDx=0;exitDy=0;exitPerimeter=0;" edge="1" parent="1" source="aYyPRx570U37zH_6uIJI-74">
          <mxGeometry relative="1" as="geometry">
            <mxPoint x="385.82352941176475" y="808.2941176470588" as="targetPoint" />
          </mxGeometry>
        </mxCell>
        <mxCell id="aYyPRx570U37zH_6uIJI-74" value="&amp;nbsp; &amp;nbsp;tipo de entrada&amp;nbsp; == 2" style="strokeWidth=2;html=1;shape=mxgraph.flowchart.decision;whiteSpace=wrap;" vertex="1" parent="1">
          <mxGeometry x="331" y="718" width="110" height="90" as="geometry" />
        </mxCell>
        <mxCell id="aYyPRx570U37zH_6uIJI-95" value="V" style="edgeStyle=orthogonalEdgeStyle;rounded=0;orthogonalLoop=1;jettySize=auto;html=1;exitX=1;exitY=0.5;exitDx=0;exitDy=0;exitPerimeter=0;entryX=0;entryY=0.5;entryDx=0;entryDy=0;" edge="1" parent="1" source="aYyPRx570U37zH_6uIJI-77" target="aYyPRx570U37zH_6uIJI-78">
          <mxGeometry relative="1" as="geometry" />
        </mxCell>
        <mxCell id="aYyPRx570U37zH_6uIJI-77" value="saldo &amp;gt;= quantidade" style="strokeWidth=2;html=1;shape=mxgraph.flowchart.decision;whiteSpace=wrap;" vertex="1" parent="1">
          <mxGeometry x="496" y="718" width="110" height="90" as="geometry" />
        </mxCell>
        <mxCell id="aYyPRx570U37zH_6uIJI-78" value="saldo = saldo - quantidade" style="rounded=1;whiteSpace=wrap;html=1;absoluteArcSize=1;arcSize=14;strokeWidth=2;" vertex="1" parent="1">
          <mxGeometry x="660.5" y="740.5" width="100" height="45" as="geometry" />
        </mxCell>
        <mxCell id="aYyPRx570U37zH_6uIJI-103" style="edgeStyle=orthogonalEdgeStyle;rounded=0;orthogonalLoop=1;jettySize=auto;html=1;exitX=0.5;exitY=1;exitDx=0;exitDy=0;exitPerimeter=0;" edge="1" parent="1" source="aYyPRx570U37zH_6uIJI-79">
          <mxGeometry relative="1" as="geometry">
            <mxPoint x="456" y="968" as="targetPoint" />
            <Array as="points">
              <mxPoint x="551" y="968" />
            </Array>
          </mxGeometry>
        </mxCell>
        <mxCell id="aYyPRx570U37zH_6uIJI-79" value="&quot;Saldo insuficiente&quot;" style="strokeWidth=2;html=1;shape=mxgraph.flowchart.display;whiteSpace=wrap;" vertex="1" parent="1">
          <mxGeometry x="501" y="858" width="100" height="60" as="geometry" />
        </mxCell>
        <mxCell id="aYyPRx570U37zH_6uIJI-107" style="edgeStyle=orthogonalEdgeStyle;rounded=0;orthogonalLoop=1;jettySize=auto;html=1;exitX=0.5;exitY=1;exitDx=0;exitDy=0;exitPerimeter=0;entryX=0.5;entryY=0;entryDx=0;entryDy=0;" edge="1" parent="1" source="aYyPRx570U37zH_6uIJI-80" target="aYyPRx570U37zH_6uIJI-81">
          <mxGeometry relative="1" as="geometry" />
        </mxCell>
        <mxCell id="aYyPRx570U37zH_6uIJI-80" value="saldo" style="strokeWidth=2;html=1;shape=mxgraph.flowchart.display;whiteSpace=wrap;" vertex="1" parent="1">
          <mxGeometry x="336" y="938" width="100" height="60" as="geometry" />
        </mxCell>
        <mxCell id="aYyPRx570U37zH_6uIJI-81" value="encerrar? (s/n)" style="html=1;strokeWidth=2;shape=manualInput;whiteSpace=wrap;rounded=1;size=26;arcSize=11;" vertex="1" parent="1">
          <mxGeometry x="341" y="1028" width="100" height="60" as="geometry" />
        </mxCell>
        <mxCell id="aYyPRx570U37zH_6uIJI-84" style="edgeStyle=orthogonalEdgeStyle;rounded=0;orthogonalLoop=1;jettySize=auto;html=1;exitX=0;exitY=0.75;exitDx=0;exitDy=0;entryX=0;entryY=0.5;entryDx=0;entryDy=0;entryPerimeter=0;" edge="1" parent="1" source="aYyPRx570U37zH_6uIJI-81" target="aYyPRx570U37zH_6uIJI-66">
          <mxGeometry relative="1" as="geometry" />
        </mxCell>
        <mxCell id="aYyPRx570U37zH_6uIJI-86" value="&quot;Sistema encerrado&quot;" style="strokeWidth=2;html=1;shape=mxgraph.flowchart.display;whiteSpace=wrap;" vertex="1" parent="1">
          <mxGeometry x="341" y="1128" width="100" height="60" as="geometry" />
        </mxCell>
        <mxCell id="aYyPRx570U37zH_6uIJI-87" value="Fim" style="strokeWidth=2;html=1;shape=mxgraph.flowchart.start_2;whiteSpace=wrap;" vertex="1" parent="1">
          <mxGeometry x="341" y="1218" width="100" height="30" as="geometry" />
        </mxCell>
        <mxCell id="aYyPRx570U37zH_6uIJI-88" value="F" style="edgeStyle=orthogonalEdgeStyle;rounded=0;orthogonalLoop=1;jettySize=auto;html=1;exitX=1;exitY=0.5;exitDx=0;exitDy=0;exitPerimeter=0;entryX=1;entryY=0.5;entryDx=0;entryDy=0;entryPerimeter=0;" edge="1" parent="1" source="aYyPRx570U37zH_6uIJI-66" target="aYyPRx570U37zH_6uIJI-86">
          <mxGeometry x="-0.9749" relative="1" as="geometry">
            <Array as="points">
              <mxPoint x="806" y="298" />
              <mxPoint x="806" y="1158" />
            </Array>
            <mxPoint as="offset" />
          </mxGeometry>
        </mxCell>
        <mxCell id="aYyPRx570U37zH_6uIJI-91" style="edgeStyle=orthogonalEdgeStyle;rounded=0;orthogonalLoop=1;jettySize=auto;html=1;exitX=0.5;exitY=1;exitDx=0;exitDy=0;entryX=0.5;entryY=0;entryDx=0;entryDy=0;entryPerimeter=0;" edge="1" parent="1" source="aYyPRx570U37zH_6uIJI-70" target="aYyPRx570U37zH_6uIJI-71">
          <mxGeometry relative="1" as="geometry" />
        </mxCell>
        <mxCell id="aYyPRx570U37zH_6uIJI-93" value="F" style="edgeStyle=orthogonalEdgeStyle;rounded=0;orthogonalLoop=1;jettySize=auto;html=1;exitX=0.5;exitY=1;exitDx=0;exitDy=0;exitPerimeter=0;entryX=0.5;entryY=0;entryDx=0;entryDy=0;entryPerimeter=0;" edge="1" parent="1" source="aYyPRx570U37zH_6uIJI-71" target="aYyPRx570U37zH_6uIJI-74">
          <mxGeometry relative="1" as="geometry" />
        </mxCell>
        <mxCell id="aYyPRx570U37zH_6uIJI-94" value="V" style="edgeStyle=orthogonalEdgeStyle;rounded=0;orthogonalLoop=1;jettySize=auto;html=1;exitX=1;exitY=0.5;exitDx=0;exitDy=0;exitPerimeter=0;entryX=0;entryY=0.5;entryDx=0;entryDy=0;entryPerimeter=0;" edge="1" parent="1" source="aYyPRx570U37zH_6uIJI-74" target="aYyPRx570U37zH_6uIJI-77">
          <mxGeometry relative="1" as="geometry" />
        </mxCell>
        <mxCell id="aYyPRx570U37zH_6uIJI-96" value="F" style="edgeStyle=orthogonalEdgeStyle;rounded=0;orthogonalLoop=1;jettySize=auto;html=1;exitX=0.5;exitY=1;exitDx=0;exitDy=0;exitPerimeter=0;entryX=0.5;entryY=0;entryDx=0;entryDy=0;entryPerimeter=0;" edge="1" parent="1" source="aYyPRx570U37zH_6uIJI-77" target="aYyPRx570U37zH_6uIJI-79">
          <mxGeometry relative="1" as="geometry" />
        </mxCell>
        <mxCell id="aYyPRx570U37zH_6uIJI-99" style="edgeStyle=orthogonalEdgeStyle;rounded=0;orthogonalLoop=1;jettySize=auto;html=1;exitX=0.5;exitY=1;exitDx=0;exitDy=0;exitPerimeter=0;" edge="1" parent="1" source="aYyPRx570U37zH_6uIJI-97">
          <mxGeometry relative="1" as="geometry">
            <mxPoint x="406" y="698" as="targetPoint" />
            <mxPoint x="756" y="663" as="sourcePoint" />
            <Array as="points">
              <mxPoint x="696" y="698" />
            </Array>
          </mxGeometry>
        </mxCell>
        <mxCell id="aYyPRx570U37zH_6uIJI-97" value="&quot;Saída: &quot; + quantidade" style="strokeWidth=2;html=1;shape=mxgraph.flowchart.display;whiteSpace=wrap;" vertex="1" parent="1">
          <mxGeometry x="646" y="603" width="100" height="60" as="geometry" />
        </mxCell>
        <mxCell id="aYyPRx570U37zH_6uIJI-98" style="edgeStyle=orthogonalEdgeStyle;rounded=0;orthogonalLoop=1;jettySize=auto;html=1;exitX=1;exitY=0.5;exitDx=0;exitDy=0;entryX=0;entryY=0.5;entryDx=0;entryDy=0;entryPerimeter=0;" edge="1" parent="1" source="aYyPRx570U37zH_6uIJI-68" target="aYyPRx570U37zH_6uIJI-97">
          <mxGeometry relative="1" as="geometry" />
        </mxCell>
        <mxCell id="aYyPRx570U37zH_6uIJI-102" style="edgeStyle=orthogonalEdgeStyle;rounded=0;orthogonalLoop=1;jettySize=auto;html=1;exitX=0.5;exitY=1;exitDx=0;exitDy=0;entryX=0.5;entryY=0;entryDx=0;entryDy=0;entryPerimeter=0;" edge="1" parent="1" source="aYyPRx570U37zH_6uIJI-78" target="aYyPRx570U37zH_6uIJI-72">
          <mxGeometry relative="1" as="geometry" />
        </mxCell>
        <mxCell id="aYyPRx570U37zH_6uIJI-105" value="F" style="edgeStyle=orthogonalEdgeStyle;rounded=0;orthogonalLoop=1;jettySize=auto;html=1;exitX=0.5;exitY=1;exitDx=0;exitDy=0;exitPerimeter=0;entryX=0.5;entryY=0;entryDx=0;entryDy=0;entryPerimeter=0;" edge="1" parent="1" source="aYyPRx570U37zH_6uIJI-74" target="aYyPRx570U37zH_6uIJI-80">
          <mxGeometry relative="1" as="geometry" />
        </mxCell>
        <mxCell id="aYyPRx570U37zH_6uIJI-108" style="edgeStyle=orthogonalEdgeStyle;rounded=0;orthogonalLoop=1;jettySize=auto;html=1;exitX=0.5;exitY=1;exitDx=0;exitDy=0;exitPerimeter=0;entryX=0.5;entryY=0;entryDx=0;entryDy=0;entryPerimeter=0;" edge="1" parent="1" source="aYyPRx570U37zH_6uIJI-86" target="aYyPRx570U37zH_6uIJI-87">
          <mxGeometry relative="1" as="geometry" />
        </mxCell>
      </root>
    </mxGraphModel>
  </diagram>
</mxfile>
